# xmcd CD database file
#
# Track frame offsets:
#	150
#	12507
#	27770
#	49187
#	67297
#	101097
#	123162
#	145950
#	160427
#	189462
#	207977
#	241187
#
# Disc length: 3400 seconds
#
# Revision: 0
# Processed by: cddbd v1.4PL0 Copyright (c) Steve Scherf et al.
# Submitted via: CDex 1.40Release
#
DISCID=ad0d460c
DTITLE=Carvin Jones - Live At Joe's Grotto
DYEAR=2002
DGENRE=Blues
TTITLE0=Carvin Jones - Sidetracked
TTITLE1=Carvin Jones - Drivin' South
TTITLE2=Carvin Jones - Hootchie Cootchie Man
TTITLE3=Carvin Jones - Beck's Boogie
TTITLE4=Carvin Jones - Rollover Woman
TTITLE5=Carvin Jones - Roadhouse Blues
TTITLE6=Carvin Jones - Hideaway
TTITLE7=Carvin Jones - Same Lie
TTITLE8=Carvin Jones - Goin' down
TTITLE9=Carvin Jones - Sweet Home Chicago
TTITLE10=Carvin Jones - Voodoo Child
TTITLE11=Carvin Jones - Star Spangled Banner
EXTD=YEAR: 2002 ID3G: 0
EXTT0=
EXTT1=
EXTT2=
EXTT3=
EXTT4=
EXTT5=
EXTT6=
EXTT7=
EXTT8=
EXTT9=
EXTT10=
EXTT11=
PLAYORDER=
